<?xml version="1.0" encoding="utf-8" ?>
<!DOCTYPE svg PUBLIC "-//W3C//DTD SVG 1.1//EN" "http://www.w3.org/Graphics/SVG/1.1/DTD/svg11.dtd">
<svg height="412" version="1.1" width="4098" xmlns="http://www.w3.org/2000/svg">
<rect fill="#ffffff" height="152" stroke="#ffffff" stroke-width="1" width="952" x="14" y="246"/>
<rect fill="none" height="152" stroke="#000000" stroke-width="1" width="952" x="14" y="246"/>
<text font-family="Ubuntu" font-size="15" x="332" y="261">
+ structured_contiguous_hyperslab_factory_t</text>
<rect fill="#000000" height="1" stroke="#000000" stroke-width="1" width="952" x="14" y="272"/>
<rect fill="#000000" height="1" stroke="#000000" stroke-width="1" width="952" x="14" y="293"/>
<text font-family="Ubuntu" font-size="15" x="18" y="309">
+CreateUniformGridDescriptor(this : structured_contiguous_hyperslab_factory_t,out UniformGridDescriptor : uniform_grid_descriptor_t)</text>
<text font-family="Ubuntu" font-size="15" x="18" y="328">
+CreateSpatialGridDescriptor(this : structured_contiguous_hyperslab_factory_t,out SpatialGridDescriptor : spatial_grid_descriptor_t)</text>
<text font-family="Ubuntu" font-size="15" x="18" y="347">
+CreateXDMFHandler(this : structured_contiguous_hyperslab_factory_t,out XDMFHandler : xdmf_handler_t)</text>
<text font-family="Ubuntu" font-size="15" x="18" y="366">
+CreateHDF5Handler(this : structured_contiguous_hyperslab_factory_t,out HDF5Handler : hdf5_handler_t)</text>
<text font-family="Ubuntu" font-size="15" x="18" y="385">
&lt;&lt;Constructor&gt;&gt; +structured_contiguous_hyperslab_factory_t()</text>
<rect fill="#ffffff" height="152" stroke="#ffffff" stroke-width="1" width="945" x="1046" y="246"/>
<rect fill="none" height="152" stroke="#000000" stroke-width="1" width="945" x="1046" y="246"/>
<text font-family="Ubuntu" font-size="15" x="1364" y="261">
+ structured_dataset_per_process_factory_t</text>
<rect fill="#000000" height="1" stroke="#000000" stroke-width="1" width="945" x="1046" y="272"/>
<rect fill="#000000" height="1" stroke="#000000" stroke-width="1" width="945" x="1046" y="293"/>
<text font-family="Ubuntu" font-size="15" x="1050" y="309">
+CreateUniformGridDescriptor(this : structured_dataset_per_process_factory_t,out UniformGridDescriptor : uniform_grid_descriptor_t)</text>
<text font-family="Ubuntu" font-size="15" x="1050" y="328">
+CreateSpatialGridDescriptor(this : structured_dataset_per_process_factory_t,out SpatialGridDescriptor : spatial_grid_descriptor_t)</text>
<text font-family="Ubuntu" font-size="15" x="1050" y="347">
+CreateXDMFHandler(this : structured_dataset_per_process_factory_t,out XDMFHandler : xdmf_handler_t)</text>
<text font-family="Ubuntu" font-size="15" x="1050" y="366">
+CreateHDF5Handler(this : structured_dataset_per_process_factory_t,out HDF5Handler : hdf5_handler_t)</text>
<text font-family="Ubuntu" font-size="15" x="1050" y="385">
&lt;&lt;Constructor&gt;&gt; +structured_dataset_per_process_factory_t()</text>
<rect fill="#ffffff" height="152" stroke="#ffffff" stroke-width="1" width="970" x="2071" y="246"/>
<rect fill="none" height="152" stroke="#000000" stroke-width="1" width="970" x="2071" y="246"/>
<text font-family="Ubuntu" font-size="15" x="2389" y="261">
+ unstructured_contiguous_hyperslab_factory_t</text>
<rect fill="#000000" height="1" stroke="#000000" stroke-width="1" width="970" x="2071" y="272"/>
<rect fill="#000000" height="1" stroke="#000000" stroke-width="1" width="970" x="2071" y="293"/>
<text font-family="Ubuntu" font-size="15" x="2075" y="309">
+CreateUniformGridDescriptor(this : unstructured_contiguous_hyperslab_factory_t,out UniformGridDescriptor : uniform_grid_descriptor_t)</text>
<text font-family="Ubuntu" font-size="15" x="2075" y="328">
+CreateSpatialGridDescriptor(this : unstructured_contiguous_hyperslab_factory_t,out SpatialGridDescriptor : spatial_grid_descriptor_t)</text>
<text font-family="Ubuntu" font-size="15" x="2075" y="347">
+CreateXDMFHandler(this : unstructured_contiguous_hyperslab_factory_t,out XDMFHandler : xdmf_handler_t)</text>
<text font-family="Ubuntu" font-size="15" x="2075" y="366">
+CreateHDF5Handler(this : unstructured_contiguous_hyperslab_factory_t,out HDF5Handler : hdf5_handler_t)</text>
<text font-family="Ubuntu" font-size="15" x="2075" y="385">
&lt;&lt;Constructor&gt;&gt; +unstructured_contiguous_hyperslab_factory_t()</text>
<rect fill="#ffffff" height="152" stroke="#ffffff" stroke-width="1" width="963" x="3121" y="246"/>
<rect fill="none" height="152" stroke="#000000" stroke-width="1" width="963" x="3121" y="246"/>
<text font-family="Ubuntu" font-size="15" x="3439" y="261">
+ unstructured_dataset_per_process_factory_t</text>
<rect fill="#000000" height="1" stroke="#000000" stroke-width="1" width="963" x="3121" y="272"/>
<rect fill="#000000" height="1" stroke="#000000" stroke-width="1" width="963" x="3121" y="293"/>
<text font-family="Ubuntu" font-size="15" x="3125" y="309">
+CreateUniformGridDescriptor(this : unstructured_dataset_per_process_factory_t,out UniformGridDescriptor : uniform_grid_descriptor_t)</text>
<text font-family="Ubuntu" font-size="15" x="3125" y="328">
+CreateSpatialGridDescriptor(this : unstructured_dataset_per_process_factory_t,out SpatialGridDescriptor : spatial_grid_descriptor_t)</text>
<text font-family="Ubuntu" font-size="15" x="3125" y="347">
+CreateXDMFHandler(this : unstructured_dataset_per_process_factory_t,out XDMFHandler : xdmf_handler_t)</text>
<text font-family="Ubuntu" font-size="15" x="3125" y="366">
+CreateHDF5Handler(this : unstructured_dataset_per_process_factory_t,out HDF5Handler : hdf5_handler_t)</text>
<text font-family="Ubuntu" font-size="15" x="3125" y="385">
&lt;&lt;Constructor&gt;&gt; +unstructured_dataset_per_process_factory_t()</text>
<rect fill="#ffffff" height="152" stroke="#ffffff" stroke-width="1" width="828" x="1635" y="14"/>
<rect fill="none" height="152" stroke="#000000" stroke-width="1" width="828" x="1635" y="14"/>
<text font-family="Ubuntu" font-size="15" x="1953" y="29">
+ xh5for_abstract_factory_t</text>
<rect fill="#000000" height="1" stroke="#000000" stroke-width="1" width="828" x="1635" y="40"/>
<rect fill="#000000" height="1" stroke="#000000" stroke-width="1" width="828" x="1635" y="61"/>
<text font-family="Ubuntu" font-size="15" x="1639" y="77">
+CreateUniformGridDescriptor(this : xh5for_abstract_factory_t,out UniformGridDescriptor : uniform_grid_descriptor_t)</text>
<text font-family="Ubuntu" font-size="15" x="1639" y="96">
+CreateSpatialGridDescriptor(this : xh5for_abstract_factory_t,out SpatialGridDescriptor : spatial_grid_descriptor_t)</text>
<text font-family="Ubuntu" font-size="15" x="1639" y="115">
+CreateXDMFHandler(this : xh5for_abstract_factory_t,out XDMFHandler : xdmf_handler_t)</text>
<text font-family="Ubuntu" font-size="15" x="1639" y="134">
+CreateHDF5Handler(this : xh5for_abstract_factory_t,out HDF5Handler : hdf5_handler_t)</text>
<text font-family="Ubuntu" font-size="15" x="1639" y="153">
&lt;&lt;Constructor&gt;&gt; +xh5for_abstract_factory_t()</text>
<polyline fill="none" points="3600,246 3600,218 2047,218 2047,166" stroke="#000000" stroke-width="1"/>
<polygon fill="#ffffff" points="2047,166 2054,178 2040,178" stroke="#ffffff" stroke-width="1"/>
<polygon fill="none" points="2047,166 2054,178 2040,178" stroke="#000000" stroke-width="1"/>
<polyline fill="none" points="2554,246 2554,218 2047,218 2047,166" stroke="#000000" stroke-width="1"/>
<polygon fill="#ffffff" points="2047,166 2054,178 2040,178" stroke="#ffffff" stroke-width="1"/>
<polygon fill="none" points="2047,166 2054,178 2040,178" stroke="#000000" stroke-width="1"/>
<polyline fill="none" points="1516,246 1516,218 2047,218 2047,166" stroke="#000000" stroke-width="1"/>
<polygon fill="#ffffff" points="2047,166 2054,178 2040,178" stroke="#ffffff" stroke-width="1"/>
<polygon fill="none" points="2047,166 2054,178 2040,178" stroke="#000000" stroke-width="1"/>
<polyline fill="none" points="488,246 488,218 2047,218 2047,166" stroke="#000000" stroke-width="1"/>
<polygon fill="#ffffff" points="2047,166 2054,178 2040,178" stroke="#ffffff" stroke-width="1"/>
<polygon fill="none" points="2047,166 2054,178 2040,178" stroke="#000000" stroke-width="1"/>
</svg>
