<?xml version="1.0" encoding="utf-8" ?>
<!DOCTYPE svg PUBLIC "-//W3C//DTD SVG 1.1//EN" "http://www.w3.org/Graphics/SVG/1.1/DTD/svg11.dtd">
<svg height="816" version="1.1" width="2575" xmlns="http://www.w3.org/2000/svg">
<rect fill="#ffffff" height="158" stroke="#ffffff" stroke-width="1" width="191" x="14" y="511"/>
<rect fill="none" height="158" stroke="#000000" stroke-width="1" width="191" x="14" y="511"/>
<text font-family="Ubuntu" font-size="15" x="45" y="526">
+ xdmf_attribute_t</text>
<rect fill="#000000" height="1" stroke="#000000" stroke-width="1" width="191" x="14" y="537"/>
<text font-family="Ubuntu" font-size="15" x="18" y="553">
+Name : character</text>
<text font-family="Ubuntu" font-size="15" x="18" y="572">
+AttributeType : character</text>
<text font-family="Ubuntu" font-size="15" x="18" y="591">
+Center : character</text>
<rect fill="#000000" height="1" stroke="#000000" stroke-width="1" width="191" x="14" y="602"/>
<text font-family="Ubuntu" font-size="15" x="18" y="618">
+xdmf_attribute_open()</text>
<text font-family="Ubuntu" font-size="15" x="18" y="637">
+default_initialization()</text>
<text font-family="Ubuntu" font-size="15" x="18" y="656">
+free()</text>
<rect fill="#ffffff" height="310" stroke="#ffffff" stroke-width="1" width="277" x="1574" y="54"/>
<rect fill="none" height="310" stroke="#000000" stroke-width="1" width="277" x="1574" y="54"/>
<text font-family="Ubuntu" font-size="15" x="1626" y="69">
+ xdmf_character_data_t</text>
<rect fill="#000000" height="1" stroke="#000000" stroke-width="1" width="277" x="1574" y="80"/>
<text font-family="Ubuntu" font-size="15" x="1578" y="96">
+Name : character</text>
<rect fill="#000000" height="1" stroke="#000000" stroke-width="1" width="277" x="1574" y="107"/>
<text font-family="Ubuntu" font-size="15" x="1578" y="123">
+xdmf_character_data_write_ch()</text>
<text font-family="Ubuntu" font-size="15" x="1578" y="142">
+xdmf_character_data_write_I4P()</text>
<text font-family="Ubuntu" font-size="15" x="1578" y="161">
+xdmf_character_data_write_I8P()</text>
<text font-family="Ubuntu" font-size="15" x="1578" y="180">
+xdmf_character_data_write_I4P_1D()</text>
<text font-family="Ubuntu" font-size="15" x="1578" y="199">
+xdmf_character_data_write_I8P_1D()</text>
<text font-family="Ubuntu" font-size="15" x="1578" y="218">
+xdmf_character_data_write_I4P_2D()</text>
<text font-family="Ubuntu" font-size="15" x="1578" y="237">
+xdmf_character_data_write_I8P_2D()</text>
<text font-family="Ubuntu" font-size="15" x="1578" y="256">
+xdmf_character_data_write_R4P()</text>
<text font-family="Ubuntu" font-size="15" x="1578" y="275">
+xdmf_character_data_write_R8P()</text>
<text font-family="Ubuntu" font-size="15" x="1578" y="294">
+xdmf_character_data_write_R4P_1D()</text>
<text font-family="Ubuntu" font-size="15" x="1578" y="313">
+xdmf_character_data_write_R8P_1D()</text>
<text font-family="Ubuntu" font-size="15" x="1578" y="332">
+xdmf_character_data_write_R4P_2D()</text>
<text font-family="Ubuntu" font-size="15" x="1578" y="351">
+xdmf_character_data_write_R8P_2D()</text>
<rect fill="#ffffff" height="272" stroke="#ffffff" stroke-width="1" width="286" x="285" y="511"/>
<rect fill="none" height="272" stroke="#000000" stroke-width="1" width="286" x="285" y="511"/>
<text font-family="Ubuntu" font-size="15" x="363" y="526">
+ xdmf_dataitem_t</text>
<rect fill="#000000" height="1" stroke="#000000" stroke-width="1" width="286" x="285" y="537"/>
<text font-family="Ubuntu" font-size="15" x="289" y="553">
+Name : character</text>
<text font-family="Ubuntu" font-size="15" x="289" y="572">
+ItemType : character</text>
<text font-family="Ubuntu" font-size="15" x="289" y="591">
+Dimensions : integer[]</text>
<text font-family="Ubuntu" font-size="15" x="289" y="610">
+NumberType : character</text>
<text font-family="Ubuntu" font-size="15" x="289" y="629">
+Precision : integer</text>
<text font-family="Ubuntu" font-size="15" x="289" y="648">
+Format : character</text>
<rect fill="#000000" height="1" stroke="#000000" stroke-width="1" width="286" x="285" y="659"/>
<text font-family="Ubuntu" font-size="15" x="289" y="675">
+xdmf_dataitem_open_no_dimensions()</text>
<text font-family="Ubuntu" font-size="15" x="289" y="694">
+xdmf_dataitem_open_I4P_dimension()</text>
<text font-family="Ubuntu" font-size="15" x="289" y="713">
+xdmf_dataitem_open_I4P_dimensions()</text>
<text font-family="Ubuntu" font-size="15" x="289" y="732">
+xdmf_dataitem_open_I8P_dimensions()</text>
<text font-family="Ubuntu" font-size="15" x="289" y="751">
+default_initialization()</text>
<text font-family="Ubuntu" font-size="15" x="289" y="770">
+free()</text>
<rect fill="#ffffff" height="120" stroke="#ffffff" stroke-width="1" width="165" x="651" y="511"/>
<rect fill="none" height="120" stroke="#000000" stroke-width="1" width="165" x="651" y="511"/>
<text font-family="Ubuntu" font-size="15" x="674" y="526">
+ xdmf_domain_t</text>
<rect fill="#000000" height="1" stroke="#000000" stroke-width="1" width="165" x="651" y="537"/>
<text font-family="Ubuntu" font-size="15" x="655" y="553">
+Name : character</text>
<rect fill="#000000" height="1" stroke="#000000" stroke-width="1" width="165" x="651" y="564"/>
<text font-family="Ubuntu" font-size="15" x="655" y="580">
+xdmf_domain_open()</text>
<text font-family="Ubuntu" font-size="15" x="655" y="599">
+default_initialization()</text>
<text font-family="Ubuntu" font-size="15" x="655" y="618">
+free()</text>
<rect fill="#ffffff" height="329" stroke="#ffffff" stroke-width="1" width="167" x="1204" y="102"/>
<rect fill="none" height="329" stroke="#000000" stroke-width="1" width="167" x="1204" y="102"/>
<text font-family="Ubuntu" font-size="15" x="1224" y="117">
+ xdmf_element_t</text>
<rect fill="#000000" height="1" stroke="#000000" stroke-width="1" width="167" x="1204" y="128"/>
<text font-family="Ubuntu" font-size="15" x="1208" y="144">
+Tag : character</text>
<text font-family="Ubuntu" font-size="15" x="1208" y="163">
+warn : logical</text>
<rect fill="#000000" height="1" stroke="#000000" stroke-width="1" width="167" x="1204" y="174"/>
<text font-family="Ubuntu" font-size="15" x="1208" y="190">
+element_open()</text>
<text font-family="Ubuntu" font-size="15" x="1208" y="209">
+get_tag()</text>
<text font-family="Ubuntu" font-size="15" x="1208" y="228">
+set_tag()</text>
<text font-family="Ubuntu" font-size="15" x="1208" y="247">
+node_is_xdmf()</text>
<text font-family="Ubuntu" font-size="15" x="1208" y="266">
+node_is_domain()</text>
<text font-family="Ubuntu" font-size="15" x="1208" y="285">
+node_is_grid()</text>
<text font-family="Ubuntu" font-size="15" x="1208" y="304">
+node_is_topology()</text>
<text font-family="Ubuntu" font-size="15" x="1208" y="323">
+node_is_geometry()</text>
<text font-family="Ubuntu" font-size="15" x="1208" y="342">
+node_is_attribute()</text>
<text font-family="Ubuntu" font-size="15" x="1208" y="361">
+node_is_dataitem()</text>
<text font-family="Ubuntu" font-size="15" x="1208" y="380">
+node_is_time()</text>
<text font-family="Ubuntu" font-size="15" x="1208" y="399">
+node_is_information()</text>
<text font-family="Ubuntu" font-size="15" x="1208" y="418">
+node_is_xinclude()</text>
<polyline fill="none" points="426,511 426,483 1285,483 1285,430" stroke="#000000" stroke-width="1"/>
<polygon fill="#ffffff" points="1285,430 1292,442 1278,442" stroke="#ffffff" stroke-width="1"/>
<polygon fill="none" points="1285,430 1292,442 1278,442" stroke="#000000" stroke-width="1"/>
<polyline fill="none" points="731,511 731,483 1285,483 1285,430" stroke="#000000" stroke-width="1"/>
<polygon fill="#ffffff" points="1285,430 1292,442 1278,442" stroke="#ffffff" stroke-width="1"/>
<polygon fill="none" points="1285,430 1292,442 1278,442" stroke="#000000" stroke-width="1"/>
<polyline fill="none" points="107,511 107,483 1285,483 1285,430" stroke="#000000" stroke-width="1"/>
<polygon fill="#ffffff" points="1285,430 1292,442 1278,442" stroke="#ffffff" stroke-width="1"/>
<polygon fill="none" points="1285,430 1292,442 1278,442" stroke="#000000" stroke-width="1"/>
<rect fill="#ffffff" height="424" stroke="#ffffff" stroke-width="1" width="579" x="387" y="14"/>
<rect fill="none" height="424" stroke="#000000" stroke-width="1" width="579" x="387" y="14"/>
<text font-family="Ubuntu" font-size="15" x="632" y="29">
+ xdmf_file_t</text>
<rect fill="#000000" height="1" stroke="#000000" stroke-width="1" width="579" x="387" y="40"/>
<text font-family="Ubuntu" font-size="15" x="391" y="56">
+filename : character</text>
<text font-family="Ubuntu" font-size="15" x="391" y="75">
+xml_handler</text>
<text font-family="Ubuntu" font-size="15" x="391" y="94">
+open : logical</text>
<text font-family="Ubuntu" font-size="15" x="391" y="113">
+parsed : logical</text>
<text font-family="Ubuntu" font-size="15" x="391" y="132">
+serialized : logical</text>
<text font-family="Ubuntu" font-size="15" x="391" y="151">
+Root</text>
<rect fill="#000000" height="1" stroke="#000000" stroke-width="1" width="579" x="387" y="162"/>
<text font-family="Ubuntu" font-size="15" x="391" y="178">
+openfile(inout xdmf_file : xdmf_file_t,write_header : logical,out IO_error : integer)</text>
<text font-family="Ubuntu" font-size="15" x="391" y="197">
+isopen(xdmf_file : xdmf_file_t)</text>
<text font-family="Ubuntu" font-size="15" x="391" y="216">
+isserialized(xdmf_file : xdmf_file_t)</text>
<text font-family="Ubuntu" font-size="15" x="391" y="235">
+setserialized(inout xdmf_file : xdmf_file_t)</text>
<text font-family="Ubuntu" font-size="15" x="391" y="254">
+parsefile(inout xdmf_file : xdmf_file_t)</text>
<text font-family="Ubuntu" font-size="15" x="391" y="273">
+isparsed(xdmf_file : xdmf_file_t)</text>
<text font-family="Ubuntu" font-size="15" x="391" y="292">
+setparsed(inout xdmf_file : xdmf_file_t)</text>
<text font-family="Ubuntu" font-size="15" x="391" y="311">
+closefile(inout xdmf_file : xdmf_file_t)</text>
<text font-family="Ubuntu" font-size="15" x="391" y="330">
+set_filename(inout xdmf_file : xdmf_file_t,filename : character)</text>
<text font-family="Ubuntu" font-size="15" x="391" y="349">
+get_filename(xdmf_file : xdmf_file_t)</text>
<text font-family="Ubuntu" font-size="15" x="391" y="368">
+get_xml_handler(xml_handler : xdmf_file_t)</text>
<text font-family="Ubuntu" font-size="15" x="391" y="387">
+get_document_root(inout root : xdmf_file_t)</text>
<text font-family="Ubuntu" font-size="15" x="391" y="406">
+free(inout xdmf_file : xdmf_file_t)</text>
<text font-family="Ubuntu" font-size="15" x="391" y="425">
&lt;&lt;Constructor&gt;&gt; +xdmf_file_t()</text>
<rect fill="#ffffff" height="139" stroke="#ffffff" stroke-width="1" width="197" x="896" y="511"/>
<rect fill="none" height="139" stroke="#000000" stroke-width="1" width="197" x="896" y="511"/>
<text font-family="Ubuntu" font-size="15" x="927" y="526">
+ xdmf_geometry_t</text>
<rect fill="#000000" height="1" stroke="#000000" stroke-width="1" width="197" x="896" y="537"/>
<text font-family="Ubuntu" font-size="15" x="900" y="553">
+GeometryType : character</text>
<rect fill="#000000" height="1" stroke="#000000" stroke-width="1" width="197" x="896" y="564"/>
<text font-family="Ubuntu" font-size="15" x="900" y="580">
+xdmf_geometry_open()</text>
<text font-family="Ubuntu" font-size="15" x="900" y="599">
+default_initialization()</text>
<text font-family="Ubuntu" font-size="15" x="900" y="618">
+is_valid_GeometryType()</text>
<text font-family="Ubuntu" font-size="15" x="900" y="637">
+free()</text>
<polyline fill="none" points="992,511 992,483 1285,483 1285,430" stroke="#000000" stroke-width="1"/>
<polygon fill="#ffffff" points="1285,430 1292,442 1278,442" stroke="#ffffff" stroke-width="1"/>
<polygon fill="none" points="1285,430 1292,442 1278,442" stroke="#000000" stroke-width="1"/>
<rect fill="#ffffff" height="234" stroke="#ffffff" stroke-width="1" width="199" x="1173" y="511"/>
<rect fill="none" height="234" stroke="#000000" stroke-width="1" width="199" x="1173" y="511"/>
<text font-family="Ubuntu" font-size="15" x="1225" y="526">
+ xdmf_grid_t</text>
<rect fill="#000000" height="1" stroke="#000000" stroke-width="1" width="199" x="1173" y="537"/>
<text font-family="Ubuntu" font-size="15" x="1177" y="553">
+Name : character</text>
<text font-family="Ubuntu" font-size="15" x="1177" y="572">
+GridType : character</text>
<text font-family="Ubuntu" font-size="15" x="1177" y="591">
+CollectionType : character</text>
<text font-family="Ubuntu" font-size="15" x="1177" y="610">
+Section : character</text>
<rect fill="#000000" height="1" stroke="#000000" stroke-width="1" width="199" x="1173" y="621"/>
<text font-family="Ubuntu" font-size="15" x="1177" y="637">
+xdmf_grid_open()</text>
<text font-family="Ubuntu" font-size="15" x="1177" y="656">
+default_initialization()</text>
<text font-family="Ubuntu" font-size="15" x="1177" y="675">
+collectiontype_is_spatial()</text>
<text font-family="Ubuntu" font-size="15" x="1177" y="694">
+gridtype_is_collection()</text>
<text font-family="Ubuntu" font-size="15" x="1177" y="713">
+is_spatial_collection()</text>
<text font-family="Ubuntu" font-size="15" x="1177" y="732">
+free()</text>
<polyline fill="none" points="1270,511 1270,483 1285,483 1285,430" stroke="#000000" stroke-width="1"/>
<polygon fill="#ffffff" points="1285,430 1292,442 1278,442" stroke="#ffffff" stroke-width="1"/>
<polygon fill="none" points="1285,430 1292,442 1278,442" stroke="#000000" stroke-width="1"/>
<rect fill="#ffffff" height="139" stroke="#ffffff" stroke-width="1" width="193" x="1452" y="511"/>
<rect fill="none" height="139" stroke="#000000" stroke-width="1" width="193" x="1452" y="511"/>
<text font-family="Ubuntu" font-size="15" x="1474" y="526">
+ xdmf_information_t</text>
<rect fill="#000000" height="1" stroke="#000000" stroke-width="1" width="193" x="1452" y="537"/>
<text font-family="Ubuntu" font-size="15" x="1456" y="553">
+Name : character</text>
<text font-family="Ubuntu" font-size="15" x="1456" y="572">
+Value : character</text>
<rect fill="#000000" height="1" stroke="#000000" stroke-width="1" width="193" x="1452" y="583"/>
<text font-family="Ubuntu" font-size="15" x="1456" y="599">
+xdmf_information_open()</text>
<text font-family="Ubuntu" font-size="15" x="1456" y="618">
+default_initialization()</text>
<text font-family="Ubuntu" font-size="15" x="1456" y="637">
+free()</text>
<polyline fill="none" points="1546,511 1546,483 1285,483 1285,430" stroke="#000000" stroke-width="1"/>
<polygon fill="#ffffff" points="1285,430 1292,442 1278,442" stroke="#ffffff" stroke-width="1"/>
<polygon fill="none" points="1285,430 1292,442 1278,442" stroke="#000000" stroke-width="1"/>
<rect fill="#ffffff" height="177" stroke="#ffffff" stroke-width="1" width="219" x="1725" y="511"/>
<rect fill="none" height="177" stroke="#000000" stroke-width="1" width="219" x="1725" y="511"/>
<text font-family="Ubuntu" font-size="15" x="1785" y="526">
+ xdmf_time_t</text>
<rect fill="#000000" height="1" stroke="#000000" stroke-width="1" width="219" x="1725" y="537"/>
<text font-family="Ubuntu" font-size="15" x="1729" y="553">
+TimeType : character</text>
<text font-family="Ubuntu" font-size="15" x="1729" y="572">
+Value : real</text>
<rect fill="#000000" height="1" stroke="#000000" stroke-width="1" width="219" x="1725" y="583"/>
<text font-family="Ubuntu" font-size="15" x="1729" y="599">
+default_initialization()</text>
<text font-family="Ubuntu" font-size="15" x="1729" y="618">
+free()</text>
<text font-family="Ubuntu" font-size="15" x="1729" y="637">
+xdmf_time_open_timetype()</text>
<text font-family="Ubuntu" font-size="15" x="1729" y="656">
+xdmf_time_open_R4P_value()</text>
<text font-family="Ubuntu" font-size="15" x="1729" y="675">
+xdmf_time_open_R8P_value()</text>
<polyline fill="none" points="1832,511 1832,483 1285,483 1285,430" stroke="#000000" stroke-width="1"/>
<polygon fill="#ffffff" points="1285,430 1292,442 1278,442" stroke="#ffffff" stroke-width="1"/>
<polygon fill="none" points="1285,430 1292,442 1278,442" stroke="#000000" stroke-width="1"/>
<rect fill="#ffffff" height="291" stroke="#ffffff" stroke-width="1" width="286" x="2024" y="511"/>
<rect fill="none" height="291" stroke="#000000" stroke-width="1" width="286" x="2024" y="511"/>
<text font-family="Ubuntu" font-size="15" x="2102" y="526">
+ xdmf_topology_t</text>
<rect fill="#000000" height="1" stroke="#000000" stroke-width="1" width="286" x="2024" y="537"/>
<text font-family="Ubuntu" font-size="15" x="2028" y="553">
+Name : character</text>
<text font-family="Ubuntu" font-size="15" x="2028" y="572">
+TopologyType : character</text>
<text font-family="Ubuntu" font-size="15" x="2028" y="591">
+NodesPerElement : integer</text>
<text font-family="Ubuntu" font-size="15" x="2028" y="610">
+Dimensions : integer[]</text>
<text font-family="Ubuntu" font-size="15" x="2028" y="629">
+Order : integer</text>
<text font-family="Ubuntu" font-size="15" x="2028" y="648">
+BaseOffset : integer</text>
<rect fill="#000000" height="1" stroke="#000000" stroke-width="1" width="286" x="2024" y="659"/>
<text font-family="Ubuntu" font-size="15" x="2028" y="675">
+xdmf_topology_open_no_dimensions()</text>
<text font-family="Ubuntu" font-size="15" x="2028" y="694">
+xdmf_topology_open_I4P_dimension()</text>
<text font-family="Ubuntu" font-size="15" x="2028" y="713">
+xdmf_topology_open_I8P_dimension()</text>
<text font-family="Ubuntu" font-size="15" x="2028" y="732">
+xdmf_topology_open_I4P_dimensions()</text>
<text font-family="Ubuntu" font-size="15" x="2028" y="751">
+xdmf_topology_open_I8P_dimensions()</text>
<text font-family="Ubuntu" font-size="15" x="2028" y="770">
+default_initialization()</text>
<text font-family="Ubuntu" font-size="15" x="2028" y="789">
+free()</text>
<polyline fill="none" points="2165,511 2165,483 1285,483 1285,430" stroke="#000000" stroke-width="1"/>
<polygon fill="#ffffff" points="1285,430 1292,442 1278,442" stroke="#ffffff" stroke-width="1"/>
<polygon fill="none" points="1285,430 1292,442 1278,442" stroke="#000000" stroke-width="1"/>
<rect fill="#ffffff" height="120" stroke="#ffffff" stroke-width="1" width="171" x="2390" y="511"/>
<rect fill="none" height="120" stroke="#000000" stroke-width="1" width="171" x="2390" y="511"/>
<text font-family="Ubuntu" font-size="15" x="2412" y="526">
+ xdmf_xinclude_t</text>
<rect fill="#000000" height="1" stroke="#000000" stroke-width="1" width="171" x="2390" y="537"/>
<text font-family="Ubuntu" font-size="15" x="2394" y="553">
+HRef : character</text>
<rect fill="#000000" height="1" stroke="#000000" stroke-width="1" width="171" x="2390" y="564"/>
<text font-family="Ubuntu" font-size="15" x="2394" y="580">
+default_initialization()</text>
<text font-family="Ubuntu" font-size="15" x="2394" y="599">
+xdmf_xinclude_open()</text>
<text font-family="Ubuntu" font-size="15" x="2394" y="618">
+free()</text>
<polyline fill="none" points="2473,511 2473,483 1285,483 1285,430" stroke="#000000" stroke-width="1"/>
<polygon fill="#ffffff" points="1285,430 1292,442 1278,442" stroke="#ffffff" stroke-width="1"/>
<polygon fill="none" points="1285,430 1292,442 1278,442" stroke="#000000" stroke-width="1"/>
</svg>
